<?xml version="1.0" encoding="UTF-8"?>
<svg width="86px" height="149px" viewBox="0 0 86 149" version="1.1" xmlns="http://www.w3.org/2000/svg" xmlns:xlink="http://www.w3.org/1999/xlink">
    <title>Wireguard-icon</title>
    <g id="Page-1" stroke="none" stroke-width="1" fill="none" fill-rule="evenodd">
        <g id="Springboard" transform="translate(-165, -165)" fill="#FFFFFF" fill-rule="nonzero">
            <g id="Group-9" transform="translate(112, 144)">
                <path d="M91.8504421,21.3643051 L104.544554,24.2787461 L104.544554,25.0073563 C99.1042202,25.7359665 93.6638866,23.5501358 88.223553,23.1858307 C92.213131,25.7359665 96.5653978,27.193187 100.917665,28.6504075 C94.0265755,34.4792893 88.223553,26.8288819 80.6070859,31.9291535 C87.8608641,35.5722047 87.4981752,34.8435944 88.223553,41.7653917 C84.9593528,42.1296968 79.5190192,45.4084428 78.4309525,47.5942735 C83.1459083,48.6871889 88.5862419,47.5942735 93.3011977,50.5087145 C91.8504421,51.6016298 88.223553,53.0588503 86.7727974,54.1517657 C90.0369975,54.8803759 94.0265755,53.4231554 95.84002,54.5160708 C102.731109,60.3449526 115.425221,68.3596652 119.05211,76.3743778 C125.217822,89.8536671 111.072954,104.425872 97.2907757,106.611703 C78.0682636,110.619059 67.1875964,130.65584 74.0786856,149.235401 C80.9697748,167.450657 102.36842,175.46537 119.414799,165.993437 C143.352267,151.421232 139.725378,126.648484 125.217822,113.169195 C124.492444,112.440584 123.767066,112.440584 123.041688,113.169195 C117.964043,116.447941 112.52371,119.362382 106.720687,121.912517 C119.777488,124.826958 121.590932,134.663197 120.140177,141.584994 C115.425221,159.071639 91.8504421,155.064283 89.3116197,140.127773 C88.223553,133.205976 91.8504421,126.284179 98.0161535,123.369738 C119.414799,113.897805 129.570088,112.440584 135.7358,88.0321415 C137.911933,74.1885471 134.647733,66.9024448 124.492444,58.8877322 C120.502866,54.8803759 112.52371,52.3302401 109.984887,46.1370531 C109.622199,45.4084428 110.347576,43.9512224 111.072954,43.9512224 C114.699843,43.2226121 128.844711,42.858307 128.844711,43.5869173 C131.383533,46.1370531 133.559666,42.1296968 134.647733,40.3081712 C131.020844,39.579561 127.031266,39.9438661 124.129755,39.9438661 C123.767066,39.9438661 123.041688,39.2152559 122.678999,38.8509507 C123.041688,38.4866456 123.767066,38.1223405 124.129755,38.1223405 L139,38.1223405 C139,35.5722047 135.7358,31.9291535 132.4716,31.2005433 L132.4716,32.2934586 C129.570088,32.6577637 126.668577,31.9291535 123.767066,30.8362382 C122.31631,29.7433228 121.228244,27.5574921 119.777488,26.8288819 C113.974465,23.5501358 107.808754,21 100.192287,21 C96.5653978,21 94.0265755,21.3643051 91.8504421,21.3643051 Z M118.929247,32.0916862 L120,33.1490773 L118.572329,33.8540048 C117.858494,34.2064685 117.501576,33.8540048 117.144658,33.5015411 C116.430823,32.4441499 118.572329,31.7392225 118.929247,32.0916862 Z M75.33441,66.9911868 C55.8612493,78.9809607 56.9430915,106.593773 74.2525677,117.493568 C75.6950241,118.220221 76.4162522,118.220221 77.1374804,117.130241 C81.4648495,111.680344 85.4316044,109.137059 90.1195876,106.230447 C81.1042354,104.777141 76.4162522,100.417223 76.7768663,94.2406729 C75.33441,72.4410841 106.707836,74.6210429 103.462309,94.9673258 C102.741081,98.6005906 100.577396,101.870529 97.6924834,104.050488 C107.429064,101.870529 114.641346,96.4206318 117.526258,86.6108168 C118.247486,83.7042049 118.247486,79.7076137 116.80503,77.1643283 C105.986607,61.1779632 89.7589735,57.9080248 75.33441,66.9911868 Z M53,138 C58.6774194,135.428571 64.7096774,134.326531 70.3870968,133.22449 C70.7419355,128.44898 72.1612903,123.673469 75,120 C64.3548387,120 55.483871,127.346939 53,138 Z" id="Wireguard-icon"></path>
            </g>
        </g>
    </g>
</svg>